<svg width="24" height="25" viewBox="0 0 24 25" fill="none" xmlns="http://www.w3.org/2000/svg">
<path fill-rule="evenodd" clip-rule="evenodd" d="M5.15164 5.6515C5.37667 5.42654 5.68184 5.30016 6.00004 5.30016C6.31823 5.30016 6.6234 5.42654 6.84844 5.6515L12 10.8031L17.1516 5.6515C17.2623 5.53689 17.3947 5.44547 17.5412 5.38258C17.6876 5.31969 17.845 5.28659 18.0044 5.2852C18.1637 5.28382 18.3217 5.31418 18.4692 5.37452C18.6167 5.43485 18.7506 5.52396 18.8633 5.63663C18.976 5.7493 19.0651 5.88328 19.1254 6.03076C19.1858 6.17823 19.2161 6.33625 19.2147 6.49558C19.2134 6.65492 19.1803 6.81238 19.1174 6.95879C19.0545 7.10519 18.963 7.23761 18.8484 7.3483L13.6968 12.4999L18.8484 17.6515C19.067 17.8778 19.188 18.1809 19.1852 18.4956C19.1825 18.8102 19.0563 19.1112 18.8338 19.3337C18.6113 19.5562 18.3104 19.6824 17.9957 19.6851C17.6811 19.6878 17.378 19.5669 17.1516 19.3483L12 14.1967L6.84844 19.3483C6.62211 19.5669 6.31899 19.6878 6.00436 19.6851C5.68972 19.6824 5.38874 19.5562 5.16625 19.3337C4.94376 19.1112 4.81756 18.8102 4.81483 18.4956C4.81209 18.1809 4.93305 17.8778 5.15164 17.6515L10.3032 12.4999L5.15164 7.3483C4.92667 7.12327 4.80029 6.8181 4.80029 6.4999C4.80029 6.18171 4.92667 5.87654 5.15164 5.6515Z" fill="black"/>
</svg>
