<svg width="20" height="14" viewBox="0 0 20 14" fill="none" xmlns="http://www.w3.org/2000/svg">
<path id="Vector" d="M16.2772 1.17248C15.1065 0.62474 13.8547 0.22665 12.5461 0C12.3853 0.290577 12.1975 0.681403 12.0681 0.99232C10.6769 0.783105 9.2985 0.783105 7.93291 0.99232C7.80347 0.681403 7.61143 0.290577 7.44927 0C6.13915 0.22665 4.88594 0.626193 3.71523 1.17538C1.35389 4.74367 0.713772 8.22333 1.03383 11.6536C2.59999 12.8232 4.11779 13.5336 5.60998 13.9985C5.97841 13.4915 6.30701 12.9525 6.59008 12.3844C6.05096 12.1795 5.53459 11.9267 5.04668 11.6333C5.17613 11.5374 5.30273 11.4371 5.42506 11.334C8.40091 12.7258 11.6342 12.7258 14.5745 11.334C14.6983 11.4371 14.8249 11.5374 14.9529 11.6333C14.4636 11.9282 13.9458 12.181 13.4067 12.3858C13.6897 12.9525 14.0169 13.4929 14.3868 14C15.8804 13.5351 17.3996 12.8246 18.9657 11.6536C19.3413 7.67704 18.3242 4.22935 16.2772 1.17248ZM6.99549 9.544C6.10217 9.544 5.36958 8.71004 5.36958 7.69448C5.36958 6.67891 6.08652 5.8435 6.99549 5.8435C7.90446 5.8435 8.63705 6.67746 8.6214 7.69448C8.62282 8.71004 7.90446 9.544 6.99549 9.544ZM13.0041 9.544C12.1108 9.544 11.3782 8.71004 11.3782 7.69448C11.3782 6.67891 12.0951 5.8435 13.0041 5.8435C13.9131 5.8435 14.6456 6.67746 14.63 7.69448C14.63 8.71004 13.9131 9.544 13.0041 9.544Z" fill="#2B2B2B"/>
</svg>
