<svg width="18" height="14" viewBox="0 0 18 14" fill="none" xmlns="http://www.w3.org/2000/svg">
<path id="Shape" d="M0.80414 6.51217C2.53348 5.5596 4.46389 4.76457 6.26758 3.96548C9.37061 2.65664 12.486 1.37048 15.6328 0.173073C16.245 -0.0309523 17.3451 -0.230478 17.453 0.67685C17.3939 1.96116 17.151 3.23796 16.9843 4.51475C16.5613 7.32254 16.0723 10.1207 15.5956 12.9192C15.4313 13.8514 14.2635 14.334 13.5163 13.7374C11.7207 12.5245 9.91119 11.3234 8.13845 10.0824C7.55774 9.4923 8.09622 8.64494 8.61486 8.22358C10.0938 6.76606 11.6623 5.52773 13.064 3.99489C13.4421 3.08183 12.3249 3.85133 11.9564 4.0871C9.93172 5.48236 7.95655 6.96281 5.82186 8.18906C4.73147 8.7893 3.46059 8.27634 2.37069 7.94139C1.39345 7.5368 -0.0385662 7.12918 0.804041 6.51223L0.80414 6.51217Z" fill="#2B2B2B"/>
</svg>
