<svg width="18" height="14" viewBox="0 0 18 14" fill="none" xmlns="http://www.w3.org/2000/svg">
<path id="Vector" d="M17.2362 1.67729C16.6172 1.9577 15.9626 2.14306 15.2927 2.22762C15.9994 1.78678 16.529 1.09324 16.7833 0.27568C16.1191 0.688479 15.3921 0.979322 14.6339 1.13557C14.127 0.561654 13.4521 0.179627 12.7149 0.0494019C11.9777 -0.0808235 11.22 0.0481181 10.5605 0.416004C9.90107 0.78389 9.37722 1.36991 9.07112 2.08216C8.76502 2.79441 8.69398 3.5926 8.86916 4.35154C7.52633 4.28062 6.21281 3.91554 5.01393 3.28C3.81505 2.64447 2.75762 1.7527 1.91033 0.662628C1.61315 1.2045 1.45699 1.81816 1.45739 2.44259C1.45634 3.02248 1.59263 3.59365 1.85413 4.10524C2.11563 4.61683 2.49423 5.05296 2.95621 5.3748C2.41925 5.35955 1.89377 5.2091 1.42445 4.93626V4.97926C1.42847 5.79176 1.70115 6.57787 2.19635 7.20461C2.69156 7.83136 3.3789 8.26027 4.1421 8.4188C3.84831 8.51216 3.54329 8.56138 3.23621 8.56498C3.02365 8.56239 2.81162 8.54226 2.6021 8.50479C2.81943 9.20372 3.24002 9.81452 3.80533 10.2522C4.37065 10.6899 5.05257 10.9327 5.75621 10.9469C4.56803 11.9231 3.10106 12.4558 1.58915 12.4603C1.31388 12.4612 1.03882 12.444 0.765625 12.4087C2.30927 13.4494 4.10818 14.0018 5.94563 13.9995C7.21361 14.0132 8.4715 13.763 9.64584 13.2635C10.8202 12.7639 11.8874 12.0251 12.7852 11.09C13.683 10.155 14.3934 9.04255 14.8748 7.81766C15.3562 6.59277 15.5991 5.27998 15.5892 3.95599C15.5892 3.80981 15.5892 3.65503 15.5892 3.50025C16.2354 2.99706 16.7927 2.38019 17.2362 1.67729Z" fill="#2B2B2B"/>
</svg>
